# Rhino

o object_1
v -330 -32.477947235107422 236.71829223632813
v -330 -32.477947235107422 -236.71829223632813
v -330 -37.005695343017578 -236.71829223632813
v -330 -37.005695343017578 236.71829223632813
v -330 -32.477947235107422 -236.71829223632813
v 330 -32.477947235107422 -236.71829223632813
v 330 -37.005695343017578 -236.71829223632813
v -330 -37.005695343017578 -236.71829223632813
v 330 -32.477947235107422 -236.71829223632813
v 330 -32.477947235107422 236.71829223632813
v 330 -37.005695343017578 236.71829223632813
v 330 -37.005695343017578 -236.71829223632813
v 330 -32.477947235107422 236.71829223632813
v -330 -32.477947235107422 236.71829223632813
v -330 -37.005695343017578 236.71829223632813
v 330 -37.005695343017578 236.71829223632813
v -330 -32.477947235107422 236.71829223632813
v 330 -32.477947235107422 236.71829223632813
v 330 -32.477947235107422 -236.71829223632813
v 330 -32.477947235107422 -236.71829223632813
v -330 -32.477947235107422 -236.71829223632813
v -330 -32.477947235107422 236.71829223632813
v -330 -37.005695343017578 236.71829223632813
v 330 -37.005695343017578 -236.71829223632813
v 330 -37.005695343017578 236.71829223632813
v 330 -37.005695343017578 -236.71829223632813
v -330 -37.005695343017578 236.71829223632813
v -330 -37.005695343017578 -236.71829223632813
vn -1 0 0
vn -1 0 0
vn -1 0 0
vn -1 0 0
vn 0 0 -1
vn 0 0 -1
vn 0 0 -1
vn 0 0 -1
vn 1 0 0
vn 1 0 0
vn 1 0 0
vn 1 0 0
vn 0 0 1
vn 0 0 1
vn 0 0 1
vn 0 0 1
vn 0 1 0
vn 0 1 0
vn 0 1 0
vn 0 1 0
vn 0 1 0
vn 0 1 0
vn 0 -1 0
vn 0 -1 0
vn 0 -1 0
vn 0 -1 0
vn 0 -1 0
vn 0 -1 0
f 1//1 2//2 3//3 4//4
f 5//5 6//6 7//7 8//8
f 9//9 10//10 11//11 12//12
f 13//13 14//14 15//15 16//16
f 17//17 18//18 19//19
f 20//20 21//21 22//22
f 23//23 24//24 25//25
f 26//26 27//27 28//28
